<svg id="Design" xmlns="http://www.w3.org/2000/svg" viewBox="0 0 149.59 82.65"><defs><style>.cls-1{fill:#231f20;}</style></defs><title>ARIA_UP</title><path class="cls-1" d="M5083.13,4087.55h9l-20-50-19.93,50h9l2.5-6.29h16.93ZM5067,4073l5.14-12.93,5.21,12.93H5067Zm59.22,14.57h9.21l-10.21-22.14c4.5-1.64,9.64-5.21,9.64-13.28,0-14.57-16.71-14.57-16.71-14.57H5101.5v50h8.36V4066.7h6.78Zm-16.35-41.64h8.28s8.36,0,8.36,6.21-8.36,6.29-8.36,6.29h-8.28v-12.5Zm34.92,41.64h8.36v-50h-8.36v50Zm37-50-19.93,50h9l1.64-4.14h18.64l1.64,4.14h9Zm-5.93,37.5,5.93-15,6,15h-11.93Z" transform="translate(-5052.2 -4037.56)"/><path class="cls-1" d="M5077.18,4120.21c-4.35,0-7-2.43-7-7.19v-9.25h3.56v9.16c0,2.63,1.32,4,3.49,4s3.49-1.32,3.49-3.88v-9.27h3.56v9.14C5084.28,4117.8,5081.53,4120.21,5077.18,4120.21Z" transform="translate(-5052.2 -4037.56)"/><path class="cls-1" d="M5094.17,4115.1h-2.71V4120h-3.56v-16.19h6.61c3.86,0,6.2,2.29,6.2,5.59v0C5100.71,4113.15,5097.8,4115.1,5094.17,4115.1Zm2.94-5.67c0-1.6-1.11-2.45-2.89-2.45h-2.75v4.95h2.82c1.78,0,2.82-1.06,2.82-2.45v0Z" transform="translate(-5052.2 -4037.56)"/><path class="cls-1" d="M5109.49,4111c3.61,0.79,5.27,2.11,5.27,4.6,0,2.8-2.31,4.6-5.53,4.6a9.47,9.47,0,0,1-6.62-2.59l1.13-1.34a7.71,7.71,0,0,0,5.55,2.29c2.17,0,3.61-1.14,3.61-2.78s-0.81-2.38-4.21-3.1c-3.72-.81-5.43-2-5.43-4.69s2.24-4.44,5.32-4.44a8.44,8.44,0,0,1,5.69,2l-1.06,1.41a7.12,7.12,0,0,0-4.67-1.76c-2.1,0-3.45,1.16-3.45,2.64S5105.93,4110.22,5109.49,4111Z" transform="translate(-5052.2 -4037.56)"/><path class="cls-1" d="M5124.28,4120h-1.85v-14.5H5117v-1.69h12.72v1.69h-5.43V4120Z" transform="translate(-5052.2 -4037.56)"/><path class="cls-1" d="M5146.13,4120h-2l-1.9-4.28h-8.81l-1.92,4.28h-1.87l7.38-16.3h1.71Zm-8.26-14.18-3.7,8.25h7.38Z" transform="translate(-5052.2 -4037.56)"/><path class="cls-1" d="M5151.3,4103.77V4120h-1.83v-16.19h1.83Z" transform="translate(-5052.2 -4037.56)"/><path class="cls-1" d="M5167.19,4120l-4.69-6.29h-4.63V4120H5156v-16.19h7c3.56,0,5.85,1.92,5.85,4.83,0,2.71-1.85,4.28-4.39,4.74l5,6.61h-2.24Zm-4.33-14.5h-5V4112h5c2.43,0,4.16-1.25,4.16-3.35S5165.47,4105.45,5162.86,4105.45Z" transform="translate(-5052.2 -4037.56)"/><path class="cls-1" d="M5178.55,4111c3.61,0.79,5.27,2.11,5.27,4.6,0,2.8-2.31,4.6-5.53,4.6a9.47,9.47,0,0,1-6.62-2.59l1.13-1.34a7.71,7.71,0,0,0,5.55,2.29c2.17,0,3.61-1.14,3.61-2.78s-0.81-2.38-4.21-3.1c-3.72-.81-5.43-2-5.43-4.69s2.24-4.44,5.32-4.44a8.44,8.44,0,0,1,5.69,2l-1.06,1.41a7.12,7.12,0,0,0-4.67-1.76c-2.1,0-3.45,1.16-3.45,2.64S5175,4110.22,5178.55,4111Z" transform="translate(-5052.2 -4037.56)"/></svg>