<svg id="Design" xmlns="http://www.w3.org/2000/svg" viewBox="0 0 157.56 82.37"><defs><style>.cls-1{fill:#231f20;}</style></defs><title>ARIA_DOWN</title><path class="cls-1" d="M7117.13,4087.55h9l-20-50-19.93,50h9l2.5-6.29h16.93ZM7101,4073l5.14-12.93,5.21,12.93H7101Zm59.22,14.57h9.21l-10.21-22.14c4.5-1.64,9.64-5.21,9.64-13.28,0-14.57-16.71-14.57-16.71-14.57H7135.5v50h8.36V4066.7h6.78Zm-16.35-41.64h8.28s8.36,0,8.36,6.21-8.36,6.29-8.36,6.29h-8.28v-12.5Zm34.92,41.64h8.36v-50h-8.36v50Zm37-50-19.93,50h9l1.64-4.14h18.64l1.64,4.14h9Zm-5.93,37.5,5.93-15,6,15h-11.93Z" transform="translate(-7082.22 -4037.56)"/><path class="cls-1" d="M7088.38,4119.66h-6.16v-15.8h6.16c5,0,8.39,3.41,8.39,7.85v0C7096.77,4116.2,7093.34,4119.66,7088.38,4119.66Zm4.76-7.9a4.54,4.54,0,0,0-4.76-4.76h-2.68v9.52h2.68a4.5,4.5,0,0,0,4.76-4.72v0Z" transform="translate(-7082.22 -4037.56)"/><path class="cls-1" d="M7107.53,4119.93a8.09,8.09,0,0,1-8.37-8.12v0a8.4,8.4,0,0,1,16.79,0v0A8.17,8.17,0,0,1,7107.53,4119.93Zm4.79-8.17a4.8,4.8,0,0,0-4.79-5,4.72,4.72,0,0,0-4.74,4.92v0a4.8,4.8,0,0,0,4.78,5,4.73,4.73,0,0,0,4.74-4.92v0Z" transform="translate(-7082.22 -4037.56)"/><path class="cls-1" d="M7135.5,4119.77h-3l-3.56-10.34-3.56,10.34h-3l-5.39-15.91h3.73l3.27,10.69,3.54-10.74h3l3.54,10.74,3.27-10.69h3.63Z" transform="translate(-7082.22 -4037.56)"/><path class="cls-1" d="M7154.53,4119.66l-7.65-10v10h-3.43v-15.8h3.21l7.4,9.73v-9.73h3.43v15.8h-3Z" transform="translate(-7082.22 -4037.56)"/><path class="cls-1" d="M7167.25,4110.9c3.52,0.77,5.15,2.05,5.15,4.49,0,2.73-2.26,4.49-5.39,4.49a9.25,9.25,0,0,1-6.46-2.53l1.11-1.31a7.52,7.52,0,0,0,5.42,2.23c2.12,0,3.52-1.11,3.52-2.71s-0.79-2.33-4.11-3c-3.63-.79-5.3-2-5.3-4.58s2.19-4.33,5.19-4.33a8.24,8.24,0,0,1,5.55,1.94l-1,1.37a6.94,6.94,0,0,0-4.56-1.71c-2.05,0-3.36,1.13-3.36,2.57S7163.77,4110.16,7167.25,4110.9Z" transform="translate(-7082.22 -4037.56)"/><path class="cls-1" d="M7181.68,4119.66h-1.81v-14.15h-5.3v-1.65H7187v1.65h-5.3v14.15Z" transform="translate(-7082.22 -4037.56)"/><path class="cls-1" d="M7203,4119.66h-1.92l-1.85-4.18h-8.6l-1.87,4.18h-1.83l7.2-15.91h1.67Zm-8.05-13.83-3.61,8.05h7.2Z" transform="translate(-7082.22 -4037.56)"/><path class="cls-1" d="M7208,4103.86v15.8h-1.78v-15.8H7208Z" transform="translate(-7082.22 -4037.56)"/><path class="cls-1" d="M7223.55,4119.66l-4.58-6.14h-4.52v6.14h-1.78v-15.8h6.79c3.47,0,5.71,1.87,5.71,4.72,0,2.64-1.81,4.17-4.29,4.63l4.85,6.45h-2.19Zm-4.22-14.15h-4.87v6.41h4.85c2.37,0,4.06-1.22,4.06-3.27S7221.87,4105.51,7219.32,4105.51Z" transform="translate(-7082.22 -4037.56)"/><path class="cls-1" d="M7234.64,4110.9c3.52,0.77,5.14,2.05,5.14,4.49,0,2.73-2.26,4.49-5.39,4.49a9.24,9.24,0,0,1-6.45-2.53l1.1-1.31a7.53,7.53,0,0,0,5.42,2.23c2.12,0,3.52-1.11,3.52-2.71s-0.79-2.33-4.11-3c-3.63-.79-5.3-2-5.3-4.58s2.19-4.33,5.19-4.33a8.23,8.23,0,0,1,5.55,1.94l-1,1.37a7,7,0,0,0-4.56-1.71c-2.05,0-3.36,1.13-3.36,2.57S7231.16,4110.16,7234.64,4110.9Z" transform="translate(-7082.22 -4037.56)"/></svg>