<?xml version="1.0" encoding="utf-8"?>
<!-- Generator: Adobe Illustrator 17.0.0, SVG Export Plug-In . SVG Version: 6.00 Build 0)  -->
<!DOCTYPE svg PUBLIC "-//W3C//DTD SVG 1.1//EN" "http://www.w3.org/Graphics/SVG/1.1/DTD/svg11.dtd">
<svg version="1.1" id="Layer_1" xmlns="http://www.w3.org/2000/svg" xmlns:xlink="http://www.w3.org/1999/xlink" x="0px" y="0px"
	 width="158px" height="83px" viewBox="0 0 158 83" enable-background="new 0 0 158 83" xml:space="preserve">
<g>
	<path fill="#231F20" d="M35.132,50.31h8.999L24.132,0.314L4.206,50.31h8.999l2.5-6.285h16.927L35.132,50.31z M18.991,35.74
		l5.142-12.927l5.214,12.927H18.991z M78.208,50.31h9.214L77.209,28.169c4.5-1.643,9.641-5.214,9.641-13.284
		c0-14.57-16.713-14.57-16.713-14.57h-16.64V50.31h8.357V29.455h6.785L78.208,50.31z M61.855,8.672h8.283c0,0,8.357,0,8.357,6.213
		c0,6.285-8.357,6.285-8.357,6.285h-8.283V8.672z M96.779,50.31h8.355V0.314h-8.355V50.31z M133.796,0.314L113.869,50.31h8.999
		l1.643-4.143h18.64l1.643,4.143h8.999L133.796,0.314z M127.868,37.812l5.928-14.999l5.998,14.999H127.868z"/>
	<g>
		<g>
			<path fill="#231F20" d="M6.379,82.415H0.218V66.62h6.161c4.965,0,8.395,3.408,8.395,7.85v0.047
				C14.773,78.963,11.344,82.415,6.379,82.415z M11.139,74.517c0-2.797-1.916-4.761-4.761-4.761H3.695v9.521h2.684
				c2.844,0,4.761-1.919,4.761-4.717V74.517z"/>
			<path fill="#231F20" d="M25.528,82.686c-4.874,0-8.373-3.634-8.373-8.124v-0.044c0-4.49,3.543-8.168,8.417-8.168
				c4.877,0,8.373,3.631,8.373,8.121v0.047C33.945,79.007,30.402,82.686,25.528,82.686z M30.314,74.517
				c0-2.709-1.989-4.965-4.786-4.965s-4.739,2.212-4.739,4.918v0.047c0,2.706,1.985,4.965,4.783,4.965
				c2.8,0,4.742-2.212,4.742-4.921V74.517z"/>
			<path fill="#231F20" d="M53.5,82.528h-3.024l-3.565-10.336l-3.565,10.336h-3.027L34.926,66.62h3.725l3.272,10.695l3.543-10.742
				h2.977l3.543,10.742l3.272-10.695h3.634L53.5,82.528z"/>
			<path fill="#231F20" d="M72.532,82.415l-7.652-10.04v10.04h-3.43V66.62h3.206l7.4,9.726V66.62h3.43v15.795H72.532z"/>
		</g>
		<g>
			<path fill="#231F20" d="M85.247,73.658c3.521,0.768,5.148,2.055,5.148,4.493c0,2.728-2.259,4.49-5.393,4.49
				c-2.508,0-4.559-0.837-6.456-2.53l1.108-1.306c1.646,1.488,3.225,2.234,5.415,2.234c2.121,0,3.521-1.108,3.521-2.709
				c0-1.488-0.79-2.325-4.106-3.024c-3.634-0.79-5.305-1.963-5.305-4.581c0-2.527,2.19-4.333,5.192-4.333
				c2.3,0,3.949,0.654,5.55,1.941l-1.038,1.375c-1.466-1.196-2.932-1.715-4.559-1.715c-2.051,0-3.36,1.13-3.36,2.574
				C80.962,72.079,81.774,72.916,85.247,73.658z"/>
			<path fill="#231F20" d="M99.683,82.415h-1.806v-14.15h-5.302V66.62h12.41v1.646h-5.302V82.415z"/>
			<path fill="#231F20" d="M121,82.415h-1.916l-1.85-4.175h-8.599l-1.872,4.175h-1.828l7.199-15.908h1.671L121,82.415z
				 M112.945,68.583l-3.612,8.055h7.199L112.945,68.583z"/>
			<path fill="#231F20" d="M126.047,66.62v15.795h-1.784V66.62H126.047z"/>
			<path fill="#231F20" d="M141.547,82.415l-4.581-6.139h-4.515v6.139h-1.781V66.62h6.793c3.474,0,5.708,1.872,5.708,4.717
				c0,2.64-1.806,4.172-4.289,4.625l4.852,6.453H141.547z M137.324,68.265h-4.874v6.409h4.852c2.369,0,4.062-1.218,4.062-3.272
				C141.364,69.439,139.876,68.265,137.324,68.265z"/>
			<path fill="#231F20" d="M152.638,73.658c3.521,0.768,5.144,2.055,5.144,4.493c0,2.728-2.256,4.49-5.393,4.49
				c-2.505,0-4.559-0.837-6.453-2.53l1.104-1.306c1.649,1.488,3.228,2.234,5.418,2.234c2.121,0,3.518-1.108,3.518-2.709
				c0-1.488-0.79-2.325-4.106-3.024c-3.634-0.79-5.302-1.963-5.302-4.581c0-2.527,2.187-4.333,5.188-4.333
				c2.303,0,3.949,0.654,5.55,1.941l-1.035,1.375c-1.469-1.196-2.936-1.715-4.559-1.715c-2.055,0-3.364,1.13-3.364,2.574
				C148.349,72.079,149.161,72.916,152.638,73.658z"/>
		</g>
	</g>
</g>
</svg>
