<?xml version="1.0" encoding="utf-8"?>
<!-- Generator: Adobe Illustrator 17.0.0, SVG Export Plug-In . SVG Version: 6.00 Build 0)  -->
<!DOCTYPE svg PUBLIC "-//W3C//DTD SVG 1.1//EN" "http://www.w3.org/Graphics/SVG/1.1/DTD/svg11.dtd">
<svg version="1.1" id="Layer_1" xmlns="http://www.w3.org/2000/svg" xmlns:xlink="http://www.w3.org/1999/xlink" x="0px" y="0px"
	 width="158px" height="83px" viewBox="0 0 158 83" enable-background="new 0 0 158 83" xml:space="preserve">
<g>
	<path fill="#231F20" d="M35.132,50.169h8.999L24.132,0.174L4.206,50.169h8.999l2.5-6.285h16.927L35.132,50.169z M18.991,35.599
		l5.142-12.927l5.214,12.927H18.991z M78.208,50.169h9.214L77.209,28.028c4.5-1.643,9.641-5.214,9.641-13.284
		c0-14.57-16.713-14.57-16.713-14.57h-16.64v49.995h8.357V29.314h6.785L78.208,50.169z M61.855,8.531h8.283c0,0,8.357,0,8.357,6.213
		c0,6.285-8.357,6.285-8.357,6.285h-8.283V8.531z M96.779,50.169h8.355V0.174h-8.355V50.169z M133.796,0.174l-19.926,49.995h8.999
		l1.643-4.143h18.64l1.643,4.143h8.999L133.796,0.174z M127.868,37.671l5.928-14.999l5.998,14.999H127.868z"/>
	<g>
		<g>
			<path fill="#231F20" d="M29.18,82.826c-4.347,0-7.007-2.428-7.007-7.194v-9.248h3.562v9.158c0,2.634,1.319,3.998,3.492,3.998
				s3.492-1.316,3.492-3.882v-9.274h3.562v9.135C36.28,80.421,33.528,82.826,29.18,82.826z"/>
			<path fill="#231F20" d="M46.168,77.715h-2.705v4.856h-3.562V66.384h6.614c3.863,0,6.198,2.289,6.198,5.595v0.048
				C52.713,75.771,49.799,77.715,46.168,77.715z M49.106,72.05c0-1.596-1.111-2.451-2.891-2.451h-2.752v4.946h2.821
				c1.78,0,2.821-1.064,2.821-2.451V72.05z"/>
		</g>
		<g>
			<path fill="#231F20" d="M61.491,73.598c3.608,0.787,5.274,2.106,5.274,4.605c0,2.796-2.314,4.601-5.527,4.601
				c-2.568,0-4.672-0.858-6.615-2.593l1.133-1.338c1.688,1.525,3.307,2.289,5.551,2.289c2.173,0,3.607-1.135,3.607-2.776
				c0-1.525-0.809-2.383-4.208-3.099c-3.724-0.809-5.435-2.012-5.435-4.695c0-2.589,2.243-4.44,5.319-4.44
				c2.359,0,4.047,0.671,5.688,1.99l-1.062,1.409c-1.504-1.225-3.007-1.757-4.672-1.757c-2.104,0-3.445,1.158-3.445,2.638
				C57.098,71.979,57.93,72.837,61.491,73.598z"/>
			<path fill="#231F20" d="M76.284,82.572h-1.849V68.071H69v-1.686h12.719v1.686h-5.435V82.572z"/>
			<path fill="#231F20" d="M98.132,82.572h-1.965l-1.896-4.279H85.46l-1.92,4.279h-1.873l7.378-16.303h1.712L98.132,82.572z
				 M89.876,68.396l-3.7,8.255h7.378L89.876,68.396z"/>
			<path fill="#231F20" d="M103.303,66.384v16.187h-1.828V66.384H103.303z"/>
			<path fill="#231F20" d="M119.187,82.572l-4.695-6.291h-4.626v6.291h-1.827V66.384h6.962c3.56,0,5.849,1.919,5.849,4.834
				c0,2.705-1.849,4.276-4.393,4.74l4.972,6.614H119.187z M114.861,68.071h-4.995v6.568h4.972c2.428,0,4.163-1.248,4.163-3.354
				C119.001,69.273,117.475,68.071,114.861,68.071z"/>
			<path fill="#231F20" d="M130.553,73.598c3.608,0.787,5.274,2.106,5.274,4.605c0,2.796-2.314,4.601-5.527,4.601
				c-2.568,0-4.672-0.858-6.615-2.593l1.133-1.338c1.688,1.525,3.307,2.289,5.551,2.289c2.173,0,3.607-1.135,3.607-2.776
				c0-1.525-0.809-2.383-4.208-3.099c-3.724-0.809-5.435-2.012-5.435-4.695c0-2.589,2.243-4.44,5.319-4.44
				c2.359,0,4.047,0.671,5.688,1.99l-1.062,1.409c-1.504-1.225-3.007-1.757-4.672-1.757c-2.104,0-3.445,1.158-3.445,2.638
				C126.16,71.979,126.992,72.837,130.553,73.598z"/>
		</g>
	</g>
</g>
</svg>
