<svg id="Design" xmlns="http://www.w3.org/2000/svg" viewBox="0 0 419.83 84.28"><defs><style>.cls-1{fill:#231f20;}</style></defs><title>DOWNSTAIRS_B</title><path class="cls-1" d="M766.5,4196.78H750.09V4154.7H766.5c13.23,0,22.37,9.08,22.37,20.92v0.13C788.87,4187.59,779.73,4196.78,766.5,4196.78Zm12.68-21c0-7.45-5.11-12.68-12.68-12.68h-7.15v25.37h7.15c7.58,0,12.68-5.11,12.68-12.57v-0.12Z" transform="translate(-750.09 -4153.98)"/><path class="cls-1" d="M817.52,4197.51c-13,0-22.31-9.68-22.31-21.65v-0.12c0-12,9.44-21.76,22.43-21.76s22.31,9.67,22.31,21.64v0.13C840,4187.7,830.51,4197.51,817.52,4197.51Zm12.75-21.76c0-7.22-5.3-13.23-12.75-13.23s-12.63,5.89-12.63,13.1v0.13c0,7.21,5.29,13.23,12.74,13.23s12.63-5.89,12.63-13.11v-0.12Z" transform="translate(-750.09 -4153.98)"/><path class="cls-1" d="M892.06,4197.09H884l-9.5-27.54-9.5,27.54h-8.07l-14.37-42.39h9.93l8.72,28.5,9.44-28.62h7.93l9.44,28.62,8.72-28.5h9.68Z" transform="translate(-750.09 -4153.98)"/><path class="cls-1" d="M942.77,4196.78L922.38,4170v26.75h-9.14V4154.7h8.54l19.72,25.91V4154.7h9.14v42.09h-7.87Z" transform="translate(-750.09 -4153.98)"/><path class="cls-1" d="M976.65,4173.45c9.38,2,13.72,5.47,13.72,12,0,7.27-6,12-14.37,12a24.64,24.64,0,0,1-17.2-6.74l3-3.48c4.38,4,8.59,6,14.43,6,5.65,0,9.38-3,9.38-7.22,0-4-2.1-6.2-10.94-8.06-9.68-2.1-14.13-5.23-14.13-12.21,0-6.73,5.84-11.54,13.83-11.54a22,22,0,0,1,14.79,5.17l-2.77,3.66a18.48,18.48,0,0,0-12.15-4.57c-5.47,0-9,3-9,6.86C965.23,4169.24,967.39,4171.47,976.65,4173.45Z" transform="translate(-750.09 -4153.98)"/><path class="cls-1" d="M1015.11,4196.78h-4.81v-37.7H996.17v-4.38h33.07v4.38h-14.13v37.7Z" transform="translate(-750.09 -4153.98)"/><path class="cls-1" d="M1071.91,4196.78h-5.11l-4.93-11.13H1039l-5,11.13h-4.87l19.18-42.39h4.45Zm-21.46-36.85-9.62,21.46H1060Z" transform="translate(-750.09 -4153.98)"/><path class="cls-1" d="M1085.36,4154.7v42.09h-4.75V4154.7h4.75Z" transform="translate(-750.09 -4153.98)"/><path class="cls-1" d="M1126.66,4196.78l-12.21-16.36h-12v16.36h-4.75V4154.7h18.1c9.26,0,15.21,5,15.21,12.57,0,7-4.81,11.12-11.43,12.32l12.93,17.19h-5.83Zm-11.25-37.7h-13v17.08h12.93c6.31,0,10.82-3.24,10.82-8.72C1126.17,4162.21,1122.2,4159.08,1115.41,4159.08Z" transform="translate(-750.09 -4153.98)"/><path class="cls-1" d="M1156.21,4173.45c9.38,2,13.71,5.47,13.71,12,0,7.27-6,12-14.37,12a24.62,24.62,0,0,1-17.19-6.74l2.94-3.48c4.39,4,8.6,6,14.44,6,5.65,0,9.37-3,9.37-7.22,0-4-2.1-6.2-10.94-8.06-9.68-2.1-14.13-5.23-14.13-12.21,0-6.73,5.83-11.54,13.82-11.54a21.94,21.94,0,0,1,14.79,5.17l-2.76,3.66a18.52,18.52,0,0,0-12.15-4.57c-5.47,0-9,3-9,6.86C1144.78,4169.24,1146.95,4171.47,1156.21,4173.45Z" transform="translate(-750.09 -4153.98)"/><path class="cls-1" d="M868.72,4237.94v-18.67h4.11v14.94h9.31v3.73H868.72Z" transform="translate(-750.09 -4153.98)"/><path class="cls-1" d="M893.25,4238.26a9.57,9.57,0,0,1-9.9-9.6v-0.05a9.93,9.93,0,0,1,19.85-.06v0.06A9.66,9.66,0,0,1,893.25,4238.26Zm5.66-9.66a5.68,5.68,0,0,0-5.66-5.87,5.59,5.59,0,0,0-5.6,5.81v0.06a5.67,5.67,0,0,0,5.65,5.87,5.59,5.59,0,0,0,5.61-5.82v-0.05Z" transform="translate(-750.09 -4153.98)"/><path class="cls-1" d="M914.63,4238.24c-5,0-8.08-2.8-8.08-8.3v-10.67h4.11v10.56c0,3,1.52,4.61,4,4.61s4-1.52,4-4.48v-10.7h4.11v10.54C922.82,4235.46,919.65,4238.24,914.63,4238.24Z" transform="translate(-750.09 -4153.98)"/><path class="cls-1" d="M940.1,4237.94l-9-11.87v11.87H927v-18.67h3.79l8.75,11.5v-11.5h4.05v18.67H940.1Z" transform="translate(-750.09 -4153.98)"/><path class="cls-1" d="M957.06,4238.26c-5.82,0-9.82-4.08-9.82-9.6v-0.05a9.59,9.59,0,0,1,9.79-9.66,10.25,10.25,0,0,1,7.34,2.56l-2.59,3.12a6.88,6.88,0,0,0-4.88-1.89,5.61,5.61,0,0,0-5.36,5.81v0.06a5.59,5.59,0,0,0,5.65,5.92,6.54,6.54,0,0,0,3.87-1.12v-2.67h-4.13v-3.55H965v8.11A12.12,12.12,0,0,1,957.06,4238.26Z" transform="translate(-750.09 -4153.98)"/><path class="cls-1" d="M969,4237.94v-18.67h14.08v3.65h-10v3.79h8.8v3.65h-8.8v3.92h10.14v3.66H969Z" transform="translate(-750.09 -4153.98)"/><path class="cls-1" d="M1003.72,4237.94h-8.88v-18.67h8.67c3.81,0,6.16,1.89,6.16,4.83v0.05a4.34,4.34,0,0,1-2.46,4c2.16,0.83,3.5,2.08,3.5,4.59v0.05C1010.71,4236.23,1007.93,4237.94,1003.72,4237.94Zm1.87-13.15c0-1.23-1-1.92-2.69-1.92h-4.06v3.95h3.79c1.82,0,3-.58,3-2v-0.06Zm1,7.47c0-1.25-.93-2-3-2h-4.75v4.11h4.88c1.82,0,2.91-.64,2.91-2v-0.06Z" transform="translate(-750.09 -4153.98)"/><path class="cls-1" d="M1028,4237.94l-1.71-4.19h-7.9l-1.71,4.19h-4.19l8-18.81h3.79l8,18.81H1028Zm-5.65-13.87-2.48,6.06h5Z" transform="translate(-750.09 -4153.98)"/><path class="cls-1" d="M1046.48,4237.94l-4-6h-3.23v6h-4.11v-18.67h8.54c4.4,0,7,2.32,7,6.16v0.06a5.8,5.8,0,0,1-4,5.79l4.56,6.67h-4.8Zm0.08-12.3c0-1.76-1.23-2.67-3.23-2.67h-4.08v5.36h4.16c2,0,3.15-1.07,3.15-2.64v-0.05Z" transform="translate(-750.09 -4153.98)"/></svg>