<svg id="Design" xmlns="http://www.w3.org/2000/svg" viewBox="0 0 357.1 37.02"><defs><style>.cls-1{fill:#231f20;}</style></defs><title>Downstairs_for_menu</title><path class="cls-1" d="M6996.41,3904.91h-14v-35.8h14c11.25,0,19,7.72,19,17.79V3887C7015.44,3897.08,7007.66,3904.91,6996.41,3904.91Zm10.79-17.9c0-6.34-4.34-10.79-10.79-10.79h-6.08v21.58h6.08c6.45,0,10.79-4.35,10.79-10.69V3887Z" transform="translate(-6982.45 -3868.49)"/><path class="cls-1" d="M7039.81,3905.52c-11,0-19-8.24-19-18.41V3887c0-10.18,8-18.51,19.08-18.51s19,8.23,19,18.41V3887C7058.89,3897.18,7050.86,3905.52,7039.81,3905.52Zm10.85-18.51c0-6.14-4.51-11.25-10.85-11.25s-10.74,5-10.74,11.15V3887c0,6.13,4.5,11.25,10.84,11.25s10.75-5,10.75-11.15V3887Z" transform="translate(-6982.45 -3868.49)"/><path class="cls-1" d="M7103.21,3905.16h-6.85l-8.08-23.43-8.08,23.43h-6.86l-12.22-36.05h8.44l7.42,24.24,8-24.35h6.75l8,24.35,7.42-24.24h8.24Z" transform="translate(-6982.45 -3868.49)"/><path class="cls-1" d="M7146.34,3904.91L7129,3882.15v22.76h-7.77v-35.8h7.27l16.77,22v-22H7153v35.8h-6.7Z" transform="translate(-6982.45 -3868.49)"/><path class="cls-1" d="M7175.16,3885.06c8,1.74,11.67,4.66,11.67,10.18,0,6.18-5.12,10.18-12.22,10.18a21,21,0,0,1-14.63-5.73l2.51-3c3.73,3.37,7.31,5.06,12.27,5.06,4.81,0,8-2.51,8-6.14,0-3.37-1.79-5.27-9.31-6.85-8.24-1.79-12-4.45-12-10.38,0-5.73,5-9.82,11.77-9.82a18.67,18.67,0,0,1,12.58,4.4l-2.35,3.12a15.72,15.72,0,0,0-10.33-3.89c-4.65,0-7.62,2.56-7.62,5.83S7167.28,3883.38,7175.16,3885.06Z" transform="translate(-6982.45 -3868.49)"/><path class="cls-1" d="M7207.87,3904.91h-4.09v-32.07h-12v-3.73h28.12v3.73h-12v32.07Z" transform="translate(-6982.45 -3868.49)"/><path class="cls-1" d="M7256.19,3904.91h-4.34l-4.19-9.46h-19.49l-4.24,9.46h-4.14l16.32-36.05h3.79Zm-18.26-31.35-8.19,18.26h16.32Z" transform="translate(-6982.45 -3868.49)"/><path class="cls-1" d="M7267.63,3869.11v35.8h-4v-35.8h4Z" transform="translate(-6982.45 -3868.49)"/><path class="cls-1" d="M7302.75,3904.91L7292.37,3891h-10.23v13.91h-4v-35.8h15.4c7.87,0,12.94,4.24,12.94,10.69,0,6-4.09,9.46-9.72,10.48l11,14.63h-5Zm-9.57-32.07h-11v14.53h11c5.37,0,9.21-2.76,9.21-7.42C7302.34,3875.5,7299,3872.84,7293.18,3872.84Z" transform="translate(-6982.45 -3868.49)"/><path class="cls-1" d="M7327.89,3885.06c8,1.74,11.66,4.66,11.66,10.18,0,6.18-5.11,10.18-12.22,10.18a20.94,20.94,0,0,1-14.63-5.73l2.5-3c3.74,3.37,7.32,5.06,12.28,5.06,4.81,0,8-2.51,8-6.14,0-3.37-1.79-5.27-9.31-6.85-8.24-1.79-12-4.45-12-10.38,0-5.73,5-9.82,11.76-9.82a18.66,18.66,0,0,1,12.58,4.4l-2.35,3.12a15.75,15.75,0,0,0-10.33-3.89c-4.66,0-7.62,2.56-7.62,5.83S7320,3883.38,7327.89,3885.06Z" transform="translate(-6982.45 -3868.49)"/></svg>