<?xml version="1.0" encoding="utf-8"?>
<!-- Generator: Adobe Illustrator 17.0.0, SVG Export Plug-In . SVG Version: 6.00 Build 0)  -->
<!DOCTYPE svg PUBLIC "-//W3C//DTD SVG 1.1//EN" "http://www.w3.org/Graphics/SVG/1.1/DTD/svg11.dtd">
<svg version="1.1" id="Layer_1" xmlns="http://www.w3.org/2000/svg" xmlns:xlink="http://www.w3.org/1999/xlink" x="0px" y="0px"
	 width="420px" height="85px" viewBox="0 0 420 85" enable-background="new 0 0 420 85" xml:space="preserve">
<g>
	<g>
		<g>
			<path fill="#FFFFFF" d="M16.5,43.165H0.085V1.079H16.5c13.229,0,22.368,9.08,22.368,20.917v0.126
				C38.868,33.968,29.729,43.165,16.5,43.165z M29.184,22.122c0-7.453-5.106-12.685-12.685-12.685H9.349v25.369H16.5
				c7.579,0,12.685-5.114,12.685-12.567V22.122z"/>
			<path fill="#FFFFFF" d="M67.523,43.886c-12.986,0-22.309-9.683-22.309-21.647v-0.117c0-11.964,9.44-21.764,22.426-21.764
				c12.995,0,22.309,9.675,22.309,21.638v0.126C89.95,34.085,80.51,43.886,67.523,43.886z M80.275,22.122
				c0-7.218-5.299-13.229-12.752-13.229c-7.453,0-12.626,5.894-12.626,13.104v0.126c0,7.21,5.29,13.229,12.743,13.229
				c7.462,0,12.634-5.894,12.634-13.112V22.122z"/>
			<path fill="#FFFFFF" d="M142.054,43.467h-8.057l-9.499-27.54L115,43.467h-8.065L92.565,1.079h9.926l8.719,28.496l9.44-28.622
				h7.931l9.44,28.622l8.719-28.496h9.683L142.054,43.467z"/>
			<path fill="#FFFFFF" d="M192.767,43.165l-20.389-26.752v26.752h-9.138V1.079h8.543l19.718,25.914V1.079h9.138v42.086H192.767z"/>
		</g>
		<g>
			<path fill="#FFFFFF" d="M226.646,19.833c9.381,2.046,13.716,5.475,13.716,11.972c0,7.269-6.02,11.964-14.37,11.964
				c-6.682,0-12.148-2.23-17.203-6.74l2.951-3.479c4.385,3.965,8.593,5.952,14.428,5.952c5.651,0,9.381-2.951,9.381-7.218
				c0-3.965-2.104-6.196-10.941-8.057c-9.683-2.104-14.135-5.231-14.135-12.207c0-6.732,5.835-11.544,13.833-11.544
				c6.128,0,10.522,1.744,14.789,5.173l-2.767,3.664c-3.907-3.186-7.814-4.569-12.148-4.569c-5.466,0-8.954,3.01-8.954,6.858
				C215.227,15.624,217.39,17.854,226.646,19.833z"/>
			<path fill="#FFFFFF" d="M265.11,43.165h-4.812V5.463h-14.127V1.079h33.065v4.385H265.11V43.165z"/>
			<path fill="#FFFFFF" d="M321.91,43.165h-5.106l-4.93-11.125h-22.913l-4.988,11.125h-4.871l19.182-42.388h4.452L321.91,43.165z
				 M300.448,6.31l-9.625,21.462h19.182L300.448,6.31z"/>
			<path fill="#FFFFFF" d="M335.357,1.079v42.086h-4.754V1.079H335.357z"/>
			<path fill="#FFFFFF" d="M376.655,43.165l-12.207-16.357h-12.031v16.357h-4.745V1.079h18.1c9.256,0,15.208,4.988,15.208,12.567
				c0,7.034-4.812,11.117-11.427,12.324l12.928,17.195H376.655z M365.405,5.463h-12.986v17.078h12.928
				c6.313,0,10.823-3.244,10.823-8.719C376.169,8.59,372.204,5.463,365.405,5.463z"/>
			<path fill="#FFFFFF" d="M406.208,19.833c9.381,2.046,13.707,5.475,13.707,11.972c0,7.269-6.011,11.964-14.37,11.964
				c-6.673,0-12.148-2.23-17.195-6.74l2.943-3.479c4.393,3.965,8.602,5.952,14.437,5.952c5.651,0,9.373-2.951,9.373-7.218
				c0-3.965-2.104-6.196-10.941-8.057c-9.683-2.104-14.127-5.231-14.127-12.207c0-6.732,5.827-11.544,13.825-11.544
				c6.137,0,10.522,1.744,14.789,5.173l-2.758,3.664c-3.915-3.186-7.822-4.569-12.148-4.569c-5.475,0-8.962,3.01-8.962,6.858
				C394.781,15.624,396.944,17.854,406.208,19.833z"/>
		</g>
	</g>
	<g>
		<path fill="#FFFFFF" d="M118.715,84.323V65.649h4.11v14.939h9.311v3.735H118.715z"/>
		<path fill="#FFFFFF" d="M143.251,84.642c-5.762,0-9.898-4.296-9.898-9.604v-0.052c0-5.308,4.188-9.656,9.95-9.656
			c5.766,0,9.898,4.293,9.898,9.601v0.056C153.201,80.294,149.013,84.642,143.251,84.642z M148.909,74.986
			c0-3.203-2.351-5.87-5.658-5.87c-3.307,0-5.602,2.615-5.602,5.814v0.056c0,3.199,2.347,5.87,5.654,5.87
			c3.311,0,5.606-2.615,5.606-5.818V74.986z"/>
		<path fill="#FFFFFF" d="M164.632,84.616c-5.014,0-8.083-2.801-8.083-8.299V65.649h4.11v10.564c0,3.039,1.521,4.612,4.029,4.612
			c2.507,0,4.029-1.518,4.029-4.479V65.649h4.107v10.538C172.823,81.841,169.65,84.616,164.632,84.616z"/>
		<path fill="#FFFFFF" d="M190.101,84.323l-9.046-11.87v11.87H177V65.649h3.79l8.749,11.498V65.649h4.055v18.673H190.101z"/>
		<path fill="#FFFFFF" d="M207.056,84.642c-5.818,0-9.82-4.081-9.82-9.604v-0.052c0-5.308,4.136-9.656,9.79-9.656
			c3.363,0,5.39,0.904,7.339,2.559l-2.589,3.121c-1.44-1.198-2.719-1.893-4.88-1.893c-2.991,0-5.364,2.641-5.364,5.814v0.056
			c0,3.415,2.347,5.922,5.654,5.922c1.495,0,2.831-0.372,3.869-1.12v-2.667h-4.133v-3.549h8.109v8.109
			C213.112,83.307,210.471,84.642,207.056,84.642z"/>
		<path fill="#FFFFFF" d="M218.97,84.323V65.649h14.083v3.653h-10.002v3.79h8.805v3.653h-8.805v3.921h10.136v3.657H218.97z"/>
		<path fill="#FFFFFF" d="M253.716,84.323h-8.883V65.649h8.671c3.813,0,6.16,1.893,6.16,4.828v0.052c0,2.109-1.12,3.281-2.455,4.028
			c2.161,0.826,3.497,2.083,3.497,4.59V79.2C260.706,82.615,257.931,84.323,253.716,84.323z M255.584,71.169
			c0-1.228-0.96-1.919-2.693-1.919h-4.058v3.947h3.79c1.815,0,2.961-0.584,2.961-1.971V71.169z M256.625,78.639
			c0-1.254-0.934-2.027-3.043-2.027h-4.75v4.11h4.884c1.815,0,2.909-0.64,2.909-2.027V78.639z"/>
		<path fill="#FFFFFF" d="M277.98,84.323l-1.707-4.188h-7.897l-1.707,4.188h-4.188l8.005-18.807h3.787l8.005,18.807H277.98z
			 M272.326,70.452l-2.481,6.056h4.962L272.326,70.452z"/>
		<path fill="#FFFFFF" d="M296.483,84.323l-4.002-5.978h-3.225v5.978h-4.11V65.649h8.537c4.404,0,7.045,2.321,7.045,6.16v0.056
			c0,3.013-1.629,4.906-4.002,5.788l4.56,6.67H296.483z M296.564,72.025c0-1.763-1.228-2.667-3.229-2.667h-4.081v5.36h4.159
			c2.001,0,3.151-1.068,3.151-2.641V72.025z"/>
	</g>
</g>
</svg>
