<svg id="Design" xmlns="http://www.w3.org/2000/svg" width="29.79" height="23.41" viewBox="0 0 29.79 23.41"><defs><style>.cls-1{fill:#fff;}</style></defs><title>icon_Mail_W</title><path class="cls-1" d="M9789.78,4566.81a2.55,2.55,0,0,0,1.74-.66l-8.44-8.44-0.58.42q-0.95.7-1.54,1.09a9.48,9.48,0,0,1-1.57.8,4.79,4.79,0,0,1-1.83.41h0a4.79,4.79,0,0,1-1.83-.41,9.45,9.45,0,0,1-1.57-.8q-0.59-.39-1.54-1.09l-0.58-.42-8.44,8.44a2.55,2.55,0,0,0,1.74.66h24.47Z" transform="translate(-9762.65 -4543.41)"/><path class="cls-1" d="M9764.33,4552.4a8.81,8.81,0,0,1-1.68-1.45v12.84l7.44-7.44Q9767.85,4554.8,9764.33,4552.4Z" transform="translate(-9762.65 -4543.41)"/><path class="cls-1" d="M9790.77,4552.4q-3.4,2.3-5.77,4l7.44,7.44V4551A9.17,9.17,0,0,1,9790.77,4552.4Z" transform="translate(-9762.65 -4543.41)"/><path class="cls-1" d="M9789.78,4543.41h-24.47a2.37,2.37,0,0,0-2,.86,3.35,3.35,0,0,0-.69,2.16,3.88,3.88,0,0,0,.91,2.27,8.25,8.25,0,0,0,1.95,1.92l3.41,2.37,2.68,1.86,1.68,1.17,0.25,0.18,0.46,0.33,0.9,0.63q0.36,0.24.86,0.54a5,5,0,0,0,1,.45,2.65,2.65,0,0,0,.83.15h0a2.65,2.65,0,0,0,.83-0.15,5,5,0,0,0,1-.45q0.51-.3.86-0.54l0.9-.63,0.46-.33,0.25-.18,1.68-1.17,6.1-4.23a7.91,7.91,0,0,0,2-2,4.4,4.4,0,0,0,.81-2.51A2.68,2.68,0,0,0,9789.78,4543.41Z" transform="translate(-9762.65 -4543.41)"/></svg>