<?xml version="1.0" encoding="utf-8"?>
<!-- Generator: Adobe Illustrator 17.0.0, SVG Export Plug-In . SVG Version: 6.00 Build 0)  -->
<!DOCTYPE svg PUBLIC "-//W3C//DTD SVG 1.1//EN" "http://www.w3.org/Graphics/SVG/1.1/DTD/svg11.dtd">
<svg version="1.1" id="Layer_1" xmlns="http://www.w3.org/2000/svg" xmlns:xlink="http://www.w3.org/1999/xlink" x="0px" y="0px"
	 width="31.188px" height="24px" viewBox="0 0 31.188 24" enable-background="new 0 0 31.188 24" xml:space="preserve">
<g>
	<g>
		<path fill="#FFFFFF" d="M27.86,23.704c0.67,0,1.25-0.221,1.743-0.658l-8.44-8.441c-0.203,0.145-0.399,0.286-0.584,0.42
			c-0.632,0.465-1.144,0.829-1.538,1.089c-0.394,0.261-0.917,0.527-1.571,0.798c-0.654,0.272-1.264,0.407-1.829,0.407h-0.017h-0.017
			c-0.565,0-1.175-0.135-1.829-0.407c-0.654-0.271-1.178-0.537-1.571-0.798c-0.394-0.26-0.906-0.623-1.538-1.089
			c-0.176-0.129-0.371-0.271-0.583-0.422l-8.442,8.443c0.493,0.437,1.074,0.658,1.743,0.658H27.86z"/>
		<path fill="#FFFFFF" d="M2.409,9.29C1.777,8.869,1.217,8.387,0.729,7.844v12.842l7.439-7.439C6.68,12.207,4.763,10.89,2.409,9.29z
			"/>
		<path fill="#FFFFFF" d="M28.858,9.29c-2.264,1.533-4.189,2.852-5.774,3.959l7.436,7.437V7.844
			C30.044,8.376,29.49,8.858,28.858,9.29z"/>
		<path fill="#FFFFFF" d="M27.86,0.296H3.389c-0.854,0-1.51,0.288-1.97,0.864c-0.46,0.576-0.69,1.297-0.69,2.161
			c0,0.698,0.305,1.455,0.914,2.269c0.609,0.815,1.258,1.454,1.945,1.92C3.966,7.777,5.102,8.567,6.997,9.88
			c1.023,0.709,1.913,1.327,2.678,1.86c0.652,0.454,1.214,0.847,1.678,1.174c0.053,0.037,0.137,0.097,0.248,0.177
			c0.12,0.086,0.271,0.195,0.458,0.33c0.36,0.26,0.659,0.471,0.898,0.632c0.238,0.161,0.526,0.341,0.865,0.54
			c0.338,0.199,0.657,0.349,0.956,0.449c0.299,0.1,0.576,0.15,0.831,0.15h0.017h0.017c0.255,0,0.532-0.05,0.831-0.15
			c0.299-0.1,0.618-0.249,0.956-0.449c0.338-0.2,0.626-0.38,0.865-0.54c0.238-0.161,0.538-0.371,0.898-0.632
			c0.187-0.135,0.338-0.244,0.458-0.33c0.111-0.08,0.195-0.139,0.249-0.177c0.362-0.252,0.925-0.643,1.682-1.169
			c1.378-0.958,3.408-2.367,6.098-4.234c0.809-0.565,1.485-1.247,2.028-2.045c0.542-0.798,0.814-1.635,0.814-2.51
			c0-0.732-0.264-1.357-0.79-1.879C29.204,0.557,28.581,0.296,27.86,0.296z"/>
	</g>
</g>
</svg>
