<svg id="Design" xmlns="http://www.w3.org/2000/svg" width="30" height="30" viewBox="0 0 30 30"><title>icon_INSTAGRAM_B</title><path d="M1195.7,2848.56h-18.4a5.8,5.8,0,0,0-5.8,5.8v18.41a5.8,5.8,0,0,0,5.8,5.8h18.4a5.8,5.8,0,0,0,5.8-5.8v-18.41A5.8,5.8,0,0,0,1195.7,2848.56Zm1.66,3.46H1198v5.08l-5.07,0,0-5.08h4.42Zm-15.15,8.46a5.27,5.27,0,1,1-1,3.08A5.28,5.28,0,0,1,1182.22,2860.48Zm16.36,12.28a2.88,2.88,0,0,1-2.88,2.88h-18.4a2.88,2.88,0,0,1-2.87-2.87v-12.28h4.48a8.2,8.2,0,1,0,15.2,0h4.48v12.28Z" transform="translate(-1171.5 -2848.56)"/></svg>