<svg id="Design" xmlns="http://www.w3.org/2000/svg" width="44" height="20.53" viewBox="0 0 44 20.53"><defs><style>.cls-1{fill:#fff;}</style></defs><title>icon_SOUNDCLOUDE</title><path class="cls-1" d="M976.59,3421.91a5.09,5.09,0,0,0-2.09.45c-0.43-5.24-4.52-9.35-9.51-9.35a9.07,9.07,0,0,0-3.46.7,0.66,0.66,0,0,0-.52.68v18.46a0.69,0.69,0,0,0,.58.69h15A5.83,5.83,0,0,0,976.59,3421.91Z" transform="translate(-938 -3413.01)"/><path class="cls-1" d="M947.85,3428.11l-0.39-7.81a0.33,0.33,0,1,0-.66,0l-0.34,7.81,0.34,5.05a0.33,0.33,0,1,0,.66,0h0Z" transform="translate(-938 -3413.01)"/><path class="cls-1" d="M946.06,3428.11l-0.42-4.81a0.3,0.3,0,1,0-.59,0l-0.37,4.8,0.37,5a0.3,0.3,0,1,0,.59,0h0Z" transform="translate(-938 -3413.01)"/><path class="cls-1" d="M949.64,3428.11l-0.36-9.6a0.39,0.39,0,0,0-.37-0.39,0.39,0.39,0,0,0-.37.39l-0.32,9.6,0.32,5a0.39,0.39,0,0,0,.37.39,0.39,0.39,0,0,0,.37-0.39h0Z" transform="translate(-938 -3413.01)"/><path class="cls-1" d="M940.13,3432.45a0.19,0.19,0,0,0,.18-0.19l0.49-4.15-0.49-4.25a0.2,0.2,0,0,0-.18-0.19,0.2,0.2,0,0,0-.18.19l-0.44,4.25,0.44,4.15A0.2,0.2,0,0,0,940.13,3432.45Z" transform="translate(-938 -3413.01)"/><path class="cls-1" d="M941.85,3433.19a0.24,0.24,0,0,0,.22-0.23l0.47-4.86-0.47-5a0.22,0.22,0,1,0-.44,0l-0.41,5,0.41,4.86A0.24,0.24,0,0,0,941.85,3433.19Z" transform="translate(-938 -3413.01)"/><path class="cls-1" d="M953,3417.36a0.45,0.45,0,1,0-.89,0l-0.28,10.75,0.28,4.93a0.45,0.45,0,1,0,.89,0h0l0.32-4.93Z" transform="translate(-938 -3413.01)"/><path class="cls-1" d="M943.6,3433.39a0.28,0.28,0,0,0,.26-0.27l0.44-5-0.44-5.18a0.28,0.28,0,0,0-.26-0.27,0.27,0.27,0,0,0-.26.27l-0.39,5.18,0.39,5A0.27,0.27,0,0,0,943.6,3433.39Z" transform="translate(-938 -3413.01)"/><path class="cls-1" d="M951.46,3428.11l-0.34-10.4a0.41,0.41,0,1,0-.82,0l-0.3,10.4,0.3,5a0.41,0.41,0,1,0,.82,0h0Z" transform="translate(-938 -3413.01)"/><path class="cls-1" d="M955.12,3428.11l-0.29-10.48a0.48,0.48,0,1,0-1,0l-0.25,10.48,0.25,4.89a0.48,0.48,0,1,0,1,0h0Z" transform="translate(-938 -3413.01)"/><path class="cls-1" d="M938.5,3425.29a0.19,0.19,0,0,0-.18.18l-0.32,2.63,0.32,2.58a0.18,0.18,0,1,0,.35,0l0.38-2.58-0.38-2.63A0.19,0.19,0,0,0,938.5,3425.29Z" transform="translate(-938 -3413.01)"/><path class="cls-1" d="M958.84,3428.11l-0.23-12a0.56,0.56,0,1,0-1.12,0l-0.21,12,0.21,4.83a0.58,0.58,0,0,0,.56.6,0.59,0.59,0,0,0,.56-0.6h0Z" transform="translate(-938 -3413.01)"/><path class="cls-1" d="M959.9,3414.38a0.63,0.63,0,0,0-.6.64l-0.24,13.1,0.24,4.76a0.6,0.6,0,1,0,1.19,0h0l0.27-4.76-0.27-13.1A0.63,0.63,0,0,0,959.9,3414.38Z" transform="translate(-938 -3413.01)"/><path class="cls-1" d="M957,3428.11L956.71,3418a0.52,0.52,0,1,0-1,0l-0.23,10.09,0.23,4.86a0.52,0.52,0,1,0,1,0h0Z" transform="translate(-938 -3413.01)"/></svg>