<?xml version="1.0" encoding="utf-8"?>
<!-- Generator: Adobe Illustrator 17.0.0, SVG Export Plug-In . SVG Version: 6.00 Build 0)  -->
<!DOCTYPE svg PUBLIC "-//W3C//DTD SVG 1.1//EN" "http://www.w3.org/Graphics/SVG/1.1/DTD/svg11.dtd">
<svg version="1.1" id="Layer_1" xmlns="http://www.w3.org/2000/svg" xmlns:xlink="http://www.w3.org/1999/xlink" x="0px" y="0px"
	 width="44px" height="21.5px" viewBox="0 0 44 21.5" enable-background="new 0 0 44 21.5" xml:space="preserve">
<g>
	<path fill="#FFFFFF" d="M38.59,9.413c-0.742,0-1.452,0.16-2.094,0.449c-0.433-5.243-4.52-9.352-9.508-9.352
		c-1.223,0-2.415,0.259-3.463,0.696c-0.41,0.169-0.516,0.345-0.521,0.683v18.458c0.006,0.357,0.261,0.656,0.584,0.69
		c0.014,0.003,14.904,0.006,15.002,0.006c2.988,0,5.411-2.601,5.411-5.812C44.001,12.018,41.578,9.413,38.59,9.413z"/>
	<path fill="#FFFFFF" d="M9.847,15.607l-0.39-7.813C9.449,7.594,9.303,7.44,9.125,7.44S8.801,7.594,8.793,7.794l-0.344,7.813
		l0.344,5.052c0.009,0.197,0.155,0.354,0.332,0.354s0.324-0.157,0.332-0.357v0.003L9.847,15.607z"/>
	<path fill="#FFFFFF" d="M8.065,15.607L7.65,10.801c-0.011-0.179-0.138-0.314-0.295-0.314c-0.158,0-0.286,0.139-0.295,0.317
		l-0.367,4.802l0.367,5.049c0.009,0.179,0.138,0.311,0.295,0.311c0.158,0,0.284-0.132,0.295-0.311l0,0L8.065,15.607z"/>
	<path fill="#FFFFFF" d="M11.646,15.61l-0.364-9.602c-0.011-0.222-0.175-0.394-0.372-0.394c-0.198,0-0.361,0.172-0.369,0.394
		l-0.321,9.602l0.321,5.018c0.009,0.219,0.172,0.391,0.369,0.391c0.198,0,0.361-0.172,0.372-0.394v0.003L11.646,15.61z"/>
	<path fill="#FFFFFF" d="M2.127,19.948c0.092,0,0.169-0.077,0.18-0.191L2.8,15.604l-0.49-4.248
		c-0.014-0.111-0.092-0.191-0.183-0.191c-0.095,0-0.172,0.08-0.183,0.191l-0.435,4.248l0.435,4.153
		C1.955,19.868,2.032,19.948,2.127,19.948z"/>
	<path fill="#FFFFFF" d="M3.854,20.693c0.115,0,0.206-0.099,0.221-0.231l0.467-4.858l-0.467-5.039
		c-0.014-0.132-0.106-0.231-0.221-0.231c-0.115,0-0.209,0.099-0.221,0.231l-0.41,5.039l0.41,4.858
		C3.645,20.594,3.74,20.693,3.854,20.693z"/>
	<path fill="#FFFFFF" d="M14.969,4.86c-0.009-0.268-0.2-0.477-0.444-0.477c-0.243,0-0.438,0.209-0.447,0.477L13.8,15.61l0.278,4.935
		c0.009,0.265,0.203,0.474,0.447,0.474c0.243,0,0.435-0.209,0.444-0.474l0,0l0.315-4.935L14.969,4.86z"/>
	<path fill="#FFFFFF" d="M5.599,20.887c0.135,0,0.244-0.117,0.258-0.274l0.438-5.005l-0.438-5.178
		c-0.014-0.157-0.123-0.274-0.258-0.274c-0.137,0-0.249,0.117-0.258,0.274l-0.39,5.178l0.39,5.005
		C5.349,20.77,5.461,20.887,5.599,20.887z"/>
	<path fill="#FFFFFF" d="M13.456,15.61L13.118,5.208c-0.009-0.243-0.189-0.437-0.407-0.437c-0.223,0-0.401,0.194-0.409,0.437
		c0,0.003-0.301,10.402-0.301,10.402l0.301,4.966c0.009,0.243,0.186,0.434,0.409,0.434c0.218,0,0.398-0.191,0.407-0.437v0.006
		L13.456,15.61z"/>
	<path fill="#FFFFFF" d="M17.12,15.61L16.834,5.131c-0.006-0.286-0.218-0.514-0.484-0.514c-0.264,0-0.475,0.228-0.481,0.514
		L15.613,15.61l0.255,4.889c0.006,0.286,0.218,0.517,0.481,0.517c0.266,0,0.478-0.231,0.484-0.517l0,0L17.12,15.61z"/>
	<path fill="#FFFFFF" d="M0.5,12.793c-0.092,0-0.163,0.077-0.178,0.185l-0.321,2.626l0.321,2.583
		c0.014,0.108,0.086,0.185,0.178,0.185c0.089,0,0.16-0.077,0.175-0.185l0.381-2.583l-0.381-2.626
		C0.66,12.87,0.588,12.793,0.5,12.793z"/>
	<path fill="#FFFFFF" d="M20.844,15.613L20.609,3.598c-0.006-0.326-0.258-0.594-0.559-0.594c-0.307,0-0.556,0.268-0.559,0.594
		L19.28,15.61l0.212,4.827c0.003,0.326,0.252,0.597,0.559,0.597c0.301,0,0.553-0.271,0.559-0.6v0.006L20.844,15.613z"/>
	<path fill="#FFFFFF" d="M21.898,1.874c-0.324,0-0.593,0.286-0.599,0.637l-0.243,13.102l0.243,4.756
		c0.006,0.348,0.275,0.634,0.599,0.634c0.321,0,0.59-0.286,0.596-0.637v0.003l0.266-4.756L22.494,2.511
		C22.488,2.16,22.219,1.874,21.898,1.874z"/>
	<path fill="#FFFFFF" d="M18.976,15.61L18.713,5.516c-0.006-0.311-0.235-0.557-0.518-0.557c-0.289,0-0.516,0.246-0.521,0.557
		L17.441,15.61l0.232,4.861c0.006,0.305,0.232,0.551,0.521,0.551c0.284,0,0.513-0.246,0.518-0.554v0.003L18.976,15.61z"/>
</g>
</svg>
