<?xml version="1.0" encoding="utf-8"?>
<!-- Generator: Adobe Illustrator 17.0.0, SVG Export Plug-In . SVG Version: 6.00 Build 0)  -->
<!DOCTYPE svg PUBLIC "-//W3C//DTD SVG 1.1//EN" "http://www.w3.org/Graphics/SVG/1.1/DTD/svg11.dtd">
<svg version="1.1" id="Layer_1" xmlns="http://www.w3.org/2000/svg" xmlns:xlink="http://www.w3.org/1999/xlink" x="0px" y="0px"
	 width="257px" height="219.667px" viewBox="0 0 257 219.667" enable-background="new 0 0 257 219.667" xml:space="preserve">
<g>
	<polygon points="129,220 1.851,0 256.149,0 	"/>
	<g>
		<path fill="#FFFFFF" d="M107.618,128.557h4.386l-9.748-24.369l-9.712,24.369h4.386l1.217-3.064h8.251L107.618,128.557z
			 M99.751,121.453l2.506-6.301l2.542,6.301H99.751z M128.614,128.557h4.489l-4.976-10.793c2.192-0.8,4.698-2.542,4.698-6.476
			c0-7.101-8.145-7.101-8.145-7.101h-8.112v24.369h4.075v-10.165h3.306L128.614,128.557z M120.644,108.261h4.037
			c0,0,4.073,0,4.073,3.028c0,3.064-4.073,3.064-4.073,3.064h-4.037V108.261z M137.665,128.557h4.073v-24.369h-4.073V128.557z
			 M155.707,104.188l-9.712,24.369h4.386l0.8-2.02h9.087l0.8,2.02h4.386L155.707,104.188z M152.818,122.464l2.889-7.312l2.923,7.312
			H152.818z"/>
		<path fill="#FFFFFF" d="M138.661,53.754c-0.538,0.417-1.153,0.808-1.153,0.808l-3.694-0.232c0.198-1.608,0.579-7.386,0.579-7.386
			h0.79l4.26,5.871C139.307,53.322,139.008,53.487,138.661,53.754 M133.585,44.868l-2.079,6.578
			c-1.392-3.89-3.674-5.421-4.615-6.002c-0.262-0.16-0.463-0.461-0.463-0.461c0.064-1.273,1.492-1.865,2.079-2.31
			c0.409-0.309,0.576-0.113,0.576-0.113l1.5,0.924c0.383,0.214,0.579-0.116,0.579-0.116c0.345-0.337,0.113-1.155,0.113-1.155h0.463
			l0.003-0.015l1.912,2.637C133.608,44.855,133.585,44.868,133.585,44.868 M154.704,53.908c-2.663-0.265-5.037,1.683-5.3,4.345
			c-0.237,2.385,1.299,4.531,3.53,5.145c-0.334,0.154-0.718,0.237-1.16,0.193c-2.241-0.221-3.664-0.882-5.907-3.599
			c-0.494-0.599-1.456-1.855-2.658-3.445l0.069-1.294l-0.692-1.268l-0.692-0.808c-0.188-0.157-0.774-0.085-1.212,0
			c-1.047-1.405-2.143-2.879-3.198-4.302l-0.093-2.508c-0.507-1.328-1.616-1.731-1.616-1.731c-0.448-0.247-1.016-0.178-1.464-0.051
			c-1.019-1.384-1.827-2.48-2.249-3.054l0.018-0.01v-0.692l0.695,0.229c0.527,0.147,0.345-0.345,0.345-0.345l-0.78-1.757
			c0.219,0.093,0.43,0.18,0.653,0.275c0,0,1.68,0.756,1.708,0.473c0,0,0.491-0.149-1.935-2.133c0,0,1.212-4.047,2.092-5.385
			c0,0,0.067-0.298-4.338-2.053c-4.404-1.755-4.69-1.248-4.69-1.248s-0.239,1.135-0.749,2.624c-1.508-0.895-3.432-1.819-5.74-2.488
			c0,0-0.612-0.09,0.134,1.045l2.043,0.846l-1.505-0.27l0.383,0.44c0,0,1.361,0.085,2.104,0.52c0,0-1.07-0.09-1.484,0.021
			c0,0,1.873,1.5,3.123,2.225c-0.129,0.273-0.26,0.54-0.404,0.808l-2.55,0.08c0,0-0.247,0.113-0.057,0.214
			c0,0,0.756,0.159,2.21,0.612l-0.049,0.028c-3.388-0.391-5.578,1.392-6.676,2.467c-0.424,0.417-0.924,0.808-0.924,0.808
			c0.365-0.09,1.616-0.808,1.616-0.808c-0.481,0.347-0.877,0.723-1.268,1.039c-0.435,0.352-0.834,0.782-1.173,0.962
			c-1.021,0.538-1.598,0.422-1.598,0.422c1.379,0.376,2.4-0.497,3.231-1.153c0.648-0.512,1.271-0.808,1.271-0.808
			c-0.576,0.319-1.351,1.001-2.195,1.96c-0.785,0.898-1.634,2.066-2.308,2.655c-0.584,0.512-1.5,0.232-1.5,0.232
			c0.224,0.754,1.5,0.229,1.5,0.229c-0.702,0.556-1.23,0.767-1.621,0.803c-0.792,0.072-1.032-0.571-1.032-0.571
			c-0.154,0.972,0.808,1.039,0.808,1.039c-1.896,0.404-1.847-0.692-1.847-0.692c0.031-0.499,0.461-0.924,0.461-0.924
			c-1.261,0.494-0.576,1.731-0.576,1.731c-1.379-1.567,0.461-2.655,0.461-2.655c-2.472,1.165-0.808,3-0.808,3
			c-1.528-0.368-1.384-1.5-1.384-1.5c0.378-2.13,2.887-3,2.887-3c-3.859,1.129-3.463,3.692-3.463,3.692
			c0.437,2.627,4.386,1.847,4.386,1.847c-3.648,1.719-5.31,0.116-5.31,0.116c-1.029-1.196-0.347-2.079-0.347-2.079
			c-0.728,0.803-0.345,1.616-0.345,1.616c1.333,2.897,5.655,1.387,5.655,1.387c-6.036,2.67-6.926-0.579-6.926-0.579
			c0.27,1.603,1.526,1.909,1.796,1.955c-2.444-0.334-2.372-2.532-2.372-2.532c-0.018-1.881,0.924-3,0.924-3
			c-1.629,1.51-1.5,3.231-1.5,3.231c0,3.154,3.463,3.231,3.463,3.231c4.546,0.674,8.423-2.079,8.423-2.079
			c-3.756,3.597-8.423,2.655-8.423,2.655c4.109,1.531,7.731-1.037,7.731-1.037c-1.019,1.027-2.884,1.729-2.884,1.729
			c2.243-0.494,4.039-1.729,4.039-1.729c-0.679,1.137-2.195,1.845-2.195,1.845c1.654-0.072,3.002-1.268,3.002-1.268
			c-0.908,1.438-0.695,8.194-0.695,8.194c0.113,14.255,5.771,15.001,5.771,15.001c1.42,4.196,3.347,5.773,3.347,5.773
			c-0.445,0.376-3.02,3.602-3.116,4.844c-0.095,1.245,1.5,3.002,1.5,3.002c0.278,3.437-0.839,4.875-1.731,5.771
			c-0.574,0.576-1.037,0.792-1.037,1.616c0,0.476,0.144,1.109,0.576,1.5c0.489,0.44,1.299,0.641,1.847,1.271
			c0.538,0.617,0.255,1.695,0.576,2.308c0.34,0.643,1.271,0.808,1.271,0.808h1.96c0.304,0,0.347-0.692,0.347-0.692h-0.808
			c-0.278,0-0.52-0.147-0.728-0.404c-0.34-0.419-0.378-1.374-0.543-2.251c-0.162-0.882-0.412-2.002-0.461-3
			c-0.044-0.895,0.093-1.662,0.232-2.539c0.129-0.826,0.551-1.497,0.808-2.079c0.468-1.068,0.808-1.731,0.808-1.731
			c1.868-0.448,3.036-1.883,3.754-3.71c0.641-1.631,1.114-3.581,1.209-5.408c0.17-3.309-0.463-6.231-0.463-6.231c0.628,0.19,3,0,3,0
			c-0.172,3.08,1.731,3.463,1.731,3.463c0.247,1.873,0.268,3.247,0.116,4.384c-0.095,0.718-0.306,1.448-0.576,1.847
			c-0.304,0.45-0.78,0.738-1.039,1.039c-0.563,0.651-0.808,1.153-0.808,1.153c-0.072,0.342,0.134,0.844,0.576,1.502
			c0.25,0.365,0.664,0.71,0.924,1.268c0.455,0.967,0.718,2.871,1.039,3.463c0.224,0.409,0.463,0.576,0.463,0.576
			c0.01,0.378,0.113,0.692,0.113,0.692c0.175,0.533,0.463,0.232,0.463,0.232c0.229-0.314,0.116-1.039,0.116-1.039
			c-0.147-0.942-0.208-1.937-0.201-2.951c0.003-0.849,0.234-1.739,0.314-2.588c0.144-1.487,0.34-2.982,0.579-4.271
			c0.525-2.833,1.153-4.847,1.153-4.847c2.375-0.396,3.118-2.771,3.118-2.771c0.481-1.737,0.01-3.949-0.232-5.308
			c-0.27-1.51-0.527-2.547-1.963-3.579c-2.979-2.138-15.001-3.46-15.001-3.46c-0.283-0.72-2.539-4.734-2.539-4.734v-1.153
			c0.419-0.437,1.037-1.5,1.037-1.5c3.211,4.093,5.079,3.808,5.079,3.808c0.8,0.075,1.5-0.232,1.5-0.232
			c1.549,1.32,2.524,1.297,3.002,1.155c0.479-0.141,0.692-1.271,0.692-1.271l5.423-0.808c0.648,0.581,1.963,0.463,1.963,0.463
			c0.525-0.026,0.913-0.105,1.178-0.183l3.09,4.26c0,0,1.966,3.905,6.756,4.379c5.706,0.566,7.023-4.453,7.067-4.626
			c0.108-0.329,0.185-0.671,0.219-1.032C159.314,56.545,157.367,54.171,154.704,53.908"/>
	</g>
</g>
</svg>
