<svg id="Design" xmlns="http://www.w3.org/2000/svg" viewBox="0 0 254.3 220"><defs><style>.cls-1{fill:#fff;}</style></defs><title>Logo_head_W</title><polygon class="cls-1" points="127.15 220 0 0 254.3 0 127.15 220"/><path d="M3010.62,3710.49H3015l-9.75-24.37-9.71,24.37h4.39l1.22-3.06h8.25Zm-7.87-7.1,2.51-6.3,2.54,6.3h-5Zm28.86,7.1h4.49l-5-10.79a6.52,6.52,0,0,0,4.7-6.48c0-7.1-8.15-7.1-8.15-7.1h-8.11v24.37h4.08v-10.16h3.31Zm-8-20.3h4s4.07,0,4.07,3-4.07,3.06-4.07,3.06h-4v-6.09Zm17,20.3h4.07v-24.37h-4.07v24.37Zm18-24.37-9.71,24.37h4.39l0.8-2h9.09l0.8,2h4.39Zm-2.89,18.28,2.89-7.31,2.92,7.31h-5.81Z" transform="translate(-2904.85 -3582)"/><path d="M3041.66,3635.68c-0.54.42-1.15,0.81-1.15,0.81l-3.69-.23c0.2-1.61.58-7.39,0.58-7.39h0.79l4.26,5.87a1.64,1.64,0,0,1-.78.94m-5.08-8.89-2.08,6.58a10.93,10.93,0,0,0-4.62-6,1.76,1.76,0,0,1-.46-0.46c0.06-1.27,1.49-1.87,2.08-2.31,0.41-.31.58-0.11,0.58-0.11l1.5,0.92a0.41,0.41,0,0,0,.58-0.12,1.43,1.43,0,0,0,.11-1.16h0.46v0l1.91,2.64-0.07,0m21.12,9a4.84,4.84,0,0,0-1.77,9.49,2.2,2.2,0,0,1-1.16.19c-2.24-.22-3.66-0.88-5.91-3.6-0.49-.6-1.46-1.85-2.66-3.44l0.07-1.29-0.69-1.27-0.69-.81a2,2,0,0,0-1.21,0l-3.2-4.3-0.09-2.51a3,3,0,0,0-1.62-1.73,2,2,0,0,0-1.46-.05l-2.25-3.05h0v-0.69l0.69,0.23c0.53,0.15.34-.34,0.34-0.34l-0.78-1.76,0.65,0.28s1.68,0.76,1.71.47c0,0,.49-0.15-1.93-2.13a31.83,31.83,0,0,1,2.09-5.38s0.07-.3-4.34-2.05-4.69-1.25-4.69-1.25a24.89,24.89,0,0,1-.75,2.62,24.76,24.76,0,0,0-5.74-2.49s-0.61-.09.13,1l2,0.85-1.51-.27,0.38,0.44a6,6,0,0,1,2.1.52,6.72,6.72,0,0,0-1.48,0,33.54,33.54,0,0,0,3.12,2.23c-0.13.27-.26,0.54-0.4,0.81l-2.55.08s-0.25.11-.06,0.21c0,0,.76.16,2.21,0.61l0,0a8,8,0,0,0-6.68,2.47c-0.42.42-.92,0.81-0.92,0.81a12.84,12.84,0,0,0,1.62-.81c-0.48.35-.88,0.72-1.27,1a10.45,10.45,0,0,1-1.17,1,2.68,2.68,0,0,1-1.6.42c1.38,0.38,2.4-.5,3.23-1.15a7.49,7.49,0,0,1,1.27-.81,9.45,9.45,0,0,0-2.19,2,34.53,34.53,0,0,1-2.31,2.66,1.74,1.74,0,0,1-1.5.23c0.22,0.75,1.5.23,1.5,0.23a3.25,3.25,0,0,1-1.62.8,1,1,0,0,1-1-.57,0.86,0.86,0,0,0,.81,1c-1.9.4-1.85-.69-1.85-0.69a1.66,1.66,0,0,1,.46-0.92,1.17,1.17,0,0,0-.58,1.73,1.67,1.67,0,0,1,.46-2.66c-2.47,1.17-.81,3-0.81,3a1.47,1.47,0,0,1-1.38-1.5c0.38-2.13,2.89-3,2.89-3-3.86,1.13-3.46,3.69-3.46,3.69,0.44,2.63,4.39,1.85,4.39,1.85-3.65,1.72-5.31.12-5.31,0.12a1.63,1.63,0,0,1-.35-2.08,1.51,1.51,0,0,0-.34,1.62c1.33,2.9,5.65,1.39,5.65,1.39-6,2.67-6.93-.58-6.93-0.58a2.24,2.24,0,0,0,1.8,2,2.53,2.53,0,0,1-2.37-2.53,4.85,4.85,0,0,1,.92-3,4.31,4.31,0,0,0-1.5,3.23c0,3.15,3.46,3.23,3.46,3.23a12.87,12.87,0,0,0,8.42-2.08,10.11,10.11,0,0,1-8.42,2.66,9,9,0,0,0,7.73-1,9.62,9.62,0,0,1-2.88,1.73,12.89,12.89,0,0,0,4-1.73,5.74,5.74,0,0,1-2.19,1.84,5.49,5.49,0,0,0,3-1.27c-0.91,1.44-.69,8.19-0.69,8.19,0.11,14.26,5.77,15,5.77,15,1.42,4.2,3.35,5.77,3.35,5.77-0.45.38-3,3.6-3.12,4.84s1.5,3,1.5,3c0.28,3.44-.84,4.88-1.73,5.77-0.57.58-1,.79-1,1.62a2.06,2.06,0,0,0,.58,1.5,13.58,13.58,0,0,1,1.85,1.27c0.54,0.62.25,1.7,0.58,2.31a2,2,0,0,0,1.27.81h2c0.3,0,.35-0.69.35-0.69h-0.81a0.94,0.94,0,0,1-.73-0.4,6.39,6.39,0,0,1-.54-2.25,23.73,23.73,0,0,1-.46-3,11.84,11.84,0,0,1,.23-2.54,8,8,0,0,1,.81-2.08c0.47-1.07.81-1.73,0.81-1.73a5.52,5.52,0,0,0,3.75-3.71,17.91,17.91,0,0,0,1.21-5.41,26.61,26.61,0,0,0-.46-6.23,15.4,15.4,0,0,0,3,0c-0.17,3.08,1.73,3.46,1.73,3.46a16.7,16.7,0,0,1,.12,4.38,4.77,4.77,0,0,1-.58,1.85,9.62,9.62,0,0,1-1,1,6,6,0,0,0-.81,1.15,2.31,2.31,0,0,0,.58,1.5,7.77,7.77,0,0,1,.92,1.27c0.46,1,.72,2.87,1,3.46a1.77,1.77,0,0,0,.46.58,2.72,2.72,0,0,0,.11.69c0.17,0.53.46,0.23,0.46,0.23a1.82,1.82,0,0,0,.12-1,18.38,18.38,0,0,1-.2-3c0-.85.23-1.74,0.31-2.59,0.14-1.49.34-3,.58-4.27a46.49,46.49,0,0,1,1.15-4.85,4.23,4.23,0,0,0,3.12-2.77c0.48-1.74,0-3.95-.23-5.31a4.67,4.67,0,0,0-2-3.58c-3-2.14-15-3.46-15-3.46-0.28-.72-2.54-4.73-2.54-4.73v-1.15a10.84,10.84,0,0,0,1-1.5c3.21,4.09,5.08,3.81,5.08,3.81a3.39,3.39,0,0,0,1.5-.23c1.55,1.32,2.52,1.3,3,1.16a2,2,0,0,0,.69-1.27l5.42-.81a3.08,3.08,0,0,0,2,.46,5.12,5.12,0,0,0,1.18-.18l3.09,4.26a8.79,8.79,0,0,0,6.76,4.38,6.36,6.36,0,0,0,7.07-4.63,4.68,4.68,0,0,0,.22-1,4.85,4.85,0,0,0-4.35-5.3" transform="translate(-2904.85 -3582)"/></svg>