<svg id="Design" xmlns="http://www.w3.org/2000/svg" viewBox="0 0 295.5 83.75"><defs><style>.cls-1{fill:#fff;}</style></defs><title>UPSTAIRS_W</title><path class="cls-1" d="M830.47,3960c-11.3,0-18.22-6.31-18.22-18.7v-24h9.26v23.81c0,6.85,3.43,10.4,9.08,10.4s9.08-3.42,9.08-10.09v-24.11h9.26V3941C848.93,3953.78,841.78,3960,830.47,3960Z" transform="translate(-812.25 -3916.68)"/><path class="cls-1" d="M874.64,3946.75h-7v12.63h-9.26v-42.09h17.19c10,0,16.11,6,16.11,14.55V3932C891.66,3941.69,884.08,3946.75,874.64,3946.75Zm7.64-14.73c0-4.15-2.89-6.37-7.52-6.37h-7.16v12.86h7.34c4.63,0,7.34-2.77,7.34-6.37V3932Z" transform="translate(-812.25 -3916.68)"/><path class="cls-1" d="M914.48,3936c9.38,2,13.71,5.47,13.71,12,0,7.27-6,12-14.37,12a24.63,24.63,0,0,1-17.2-6.74l2.95-3.48c4.39,4,8.6,6,14.43,6,5.65,0,9.38-3,9.38-7.22,0-4-2.1-6.2-10.94-8.06-9.68-2.1-14.13-5.23-14.13-12.21,0-6.73,5.83-11.54,13.83-11.54a21.94,21.94,0,0,1,14.79,5.17l-2.76,3.66A18.5,18.5,0,0,0,912,3921c-5.47,0-9,3-9,6.86C903.06,3931.83,905.22,3934.06,914.48,3936Z" transform="translate(-812.25 -3916.68)"/><path class="cls-1" d="M952.94,3959.37h-4.81v-37.7H934v-4.38h33.07v4.38H952.94v37.7Z" transform="translate(-812.25 -3916.68)"/><path class="cls-1" d="M1009.74,3959.37h-5.11l-4.93-11.13H976.8l-5,11.13h-4.87L986.11,3917h4.45Zm-21.47-36.85L978.66,3944h19.18Z" transform="translate(-812.25 -3916.68)"/><path class="cls-1" d="M1023.19,3917.29v42.09h-4.75v-42.09h4.75Z" transform="translate(-812.25 -3916.68)"/><path class="cls-1" d="M1064.49,3959.37L1052.28,3943h-12v16.36h-4.75v-42.09h18.1c9.26,0,15.21,5,15.21,12.57,0,7-4.81,11.12-11.42,12.32l12.93,17.19h-5.83Zm-11.25-37.7h-13v17.08h12.93c6.31,0,10.82-3.24,10.82-8.72C1064,3924.8,1060,3921.67,1053.24,3921.67Z" transform="translate(-812.25 -3916.68)"/><path class="cls-1" d="M1094,3936c9.38,2,13.71,5.47,13.71,12,0,7.27-6,12-14.37,12a24.63,24.63,0,0,1-17.2-6.74l2.95-3.48c4.39,4,8.6,6,14.43,6,5.65,0,9.38-3,9.38-7.22,0-4-2.1-6.2-10.94-8.06-9.68-2.1-14.13-5.23-14.13-12.21,0-6.73,5.83-11.54,13.83-11.54a21.94,21.94,0,0,1,14.79,5.17l-2.76,3.66a18.5,18.5,0,0,0-12.15-4.57c-5.47,0-9,3-9,6.86C1082.61,3931.83,1084.78,3934.06,1094,3936Z" transform="translate(-812.25 -3916.68)"/><path class="cls-1" d="M878.92,4000.14l-4-6h-3.23v6h-4.11v-18.67h8.54c4.4,0,7,2.32,7,6.16v0.06a5.8,5.8,0,0,1-4,5.79l4.56,6.67h-4.8Zm0.08-12.3c0-1.76-1.23-2.67-3.23-2.67h-4.08v5.36h4.16c2,0,3.15-1.07,3.15-2.64v-0.05Z" transform="translate(-812.25 -3916.68)"/><path class="cls-1" d="M886.86,4000.14v-18.67h14.08v3.65h-10v3.79h8.8v3.65h-8.8v3.92h10.14v3.66H886.86Z" transform="translate(-812.25 -3916.68)"/><path class="cls-1" d="M911.37,4000.41a11.89,11.89,0,0,1-7.92-3l2.43-2.91a8.56,8.56,0,0,0,5.58,2.27c1.68,0,2.69-.67,2.69-1.76V3995c0-1-.64-1.57-3.76-2.38-3.76-1-6.19-2-6.19-5.71v-0.06c0-3.39,2.72-5.63,6.54-5.63a10.81,10.81,0,0,1,6.94,2.37l-2.14,3.09a8.77,8.77,0,0,0-4.85-1.84c-1.58,0-2.4.72-2.4,1.63v0.05c0,1.23.8,1.63,4,2.46,3.79,1,5.92,2.35,5.92,5.6v0.05C918.22,3998.32,915.4,4000.41,911.37,4000.41Z" transform="translate(-812.25 -3916.68)"/><path class="cls-1" d="M929.87,3985.25v14.89h-4.11v-14.89h-5.68v-3.79h15.47v3.79h-5.68Z" transform="translate(-812.25 -3916.68)"/><path class="cls-1" d="M950.22,4000.14l-1.71-4.19h-7.9l-1.71,4.19h-4.19l8-18.81h3.79l8,18.81h-4.29Zm-5.66-13.87-2.48,6.06h5Z" transform="translate(-812.25 -3916.68)"/><path class="cls-1" d="M964.51,4000.43c-5,0-8.08-2.8-8.08-8.3v-10.67h4.11V3992c0,3,1.52,4.61,4,4.61s4-1.52,4-4.48v-10.7h4.11V3992C972.7,3997.66,969.52,4000.43,964.51,4000.43Z" transform="translate(-812.25 -3916.68)"/><path class="cls-1" d="M988.21,4000.14l-4-6H981v6h-4.11v-18.67h8.54c4.4,0,7,2.32,7,6.16v0.06a5.8,5.8,0,0,1-4,5.79l4.56,6.67h-4.8Zm0.08-12.3c0-1.76-1.23-2.67-3.23-2.67H981v5.36h4.16c2,0,3.15-1.07,3.15-2.64v-0.05Z" transform="translate(-812.25 -3916.68)"/><path class="cls-1" d="M1010.05,4000.14l-1.71-4.19h-7.9l-1.71,4.19h-4.19l8-18.81h3.79l8,18.81h-4.29Zm-5.66-13.87-2.48,6.06h5Z" transform="translate(-812.25 -3916.68)"/><path class="cls-1" d="M1030.32,4000.14l-9-11.87v11.87h-4.05v-18.67H1021l8.75,11.5v-11.5h4.06v18.67h-3.49Z" transform="translate(-812.25 -3916.68)"/><path class="cls-1" d="M1046.74,3985.25v14.89h-4.11v-14.89h-5.68v-3.79h15.47v3.79h-5.68Z" transform="translate(-812.25 -3916.68)"/></svg>