<?xml version="1.0" encoding="utf-8"?>
<!-- Generator: Adobe Illustrator 17.0.0, SVG Export Plug-In . SVG Version: 6.00 Build 0)  -->
<!DOCTYPE svg PUBLIC "-//W3C//DTD SVG 1.1//EN" "http://www.w3.org/Graphics/SVG/1.1/DTD/svg11.dtd">
<svg version="1.1" id="Layer_1" xmlns="http://www.w3.org/2000/svg" xmlns:xlink="http://www.w3.org/1999/xlink" x="0px" y="0px"
	 width="296px" height="84px" viewBox="0 0 296 84" enable-background="new 0 0 296 84" xml:space="preserve">
<g>
	<g>
		<g>
			<path fill="#FFFFFF" d="M18.47,43.478c-11.301,0-18.218-6.313-18.218-18.704V0.729h9.26v23.81c0,6.849,3.429,10.396,9.08,10.396
				s9.08-3.421,9.08-10.094V0.729h9.26V24.48C36.931,37.223,29.775,43.478,18.47,43.478z"/>
			<path fill="#FFFFFF" d="M62.639,30.19h-7.034v12.626h-9.26V0.729H63.54c10.044,0,16.113,5.952,16.113,14.546v0.126
				C79.654,25.134,72.079,30.19,62.639,30.19z M70.277,15.459c0-4.15-2.888-6.372-7.516-6.372h-7.155v12.861h7.336
				c4.628,0,7.336-2.767,7.336-6.372V15.459z"/>
		</g>
		<g>
			<path fill="#FFFFFF" d="M102.479,19.484c9.381,2.046,13.712,5.475,13.712,11.972c0,7.269-6.015,11.964-14.37,11.964
				c-6.678,0-12.148-2.23-17.199-6.74l2.947-3.479c4.389,3.965,8.597,5.952,14.433,5.952c5.651,0,9.377-2.951,9.377-7.218
				c0-3.965-2.104-6.196-10.941-8.057c-9.683-2.104-14.131-5.231-14.131-12.207c0-6.732,5.831-11.544,13.829-11.544
				c6.133,0,10.522,1.744,14.789,5.173l-2.762,3.664c-3.911-3.186-7.818-4.569-12.148-4.569c-5.47,0-8.958,3.01-8.958,6.858
				C91.056,15.275,93.219,17.505,102.479,19.484z"/>
			<path fill="#FFFFFF" d="M140.939,42.815h-4.808V5.114H122V0.729h33.07v4.385h-14.131V42.815z"/>
			<path fill="#FFFFFF" d="M197.743,42.815h-5.11l-4.93-11.125h-22.908l-4.992,11.125h-4.871l19.182-42.388h4.452L197.743,42.815z
				 M176.276,5.961l-9.62,21.462h19.182L176.276,5.961z"/>
			<path fill="#FFFFFF" d="M211.186,0.729v42.086h-4.754V0.729H211.186z"/>
			<path fill="#FFFFFF" d="M252.484,42.815l-12.207-16.357h-12.026v16.357h-4.749V0.729h18.1c9.256,0,15.208,4.988,15.208,12.567
				c0,7.034-4.808,11.117-11.423,12.324l12.928,17.195H252.484z M241.237,5.114h-12.986v17.078h12.928
				c6.313,0,10.823-3.244,10.823-8.719C252.002,8.241,248.032,5.114,241.237,5.114z"/>
			<path fill="#FFFFFF" d="M282.037,19.484c9.381,2.046,13.712,5.475,13.712,11.972c0,7.269-6.015,11.964-14.37,11.964
				c-6.678,0-12.148-2.23-17.199-6.74l2.947-3.479c4.389,3.965,8.598,5.952,14.433,5.952c5.651,0,9.377-2.951,9.377-7.218
				c0-3.965-2.104-6.196-10.941-8.057c-9.683-2.104-14.131-5.231-14.131-12.207c0-6.732,5.831-11.544,13.829-11.544
				c6.133,0,10.522,1.744,14.789,5.173l-2.762,3.664c-3.911-3.186-7.818-4.569-12.148-4.569c-5.47,0-8.958,3.01-8.958,6.858
				C270.614,15.275,272.777,17.505,282.037,19.484z"/>
		</g>
	</g>
	<g>
		<path fill="#FFFFFF" d="M66.92,83.581l-4.002-5.978h-3.227v5.978h-4.108V64.907h8.537c4.402,0,7.043,2.321,7.043,6.16v0.056
			c0,3.013-1.627,4.906-4.002,5.788l4.562,6.67H66.92z M67,71.283c0-1.763-1.228-2.667-3.229-2.667h-4.081v5.36h4.161
			c2.001,0,3.149-1.068,3.149-2.641V71.283z"/>
		<path fill="#FFFFFF" d="M74.86,83.581V64.907h14.085v3.653H78.941v3.79h8.805v3.653h-8.805v3.921h10.138v3.657H74.86z"/>
		<path fill="#FFFFFF" d="M99.366,83.848c-2.827,0-5.682-0.989-7.923-2.991l2.429-2.905c1.679,1.387,3.441,2.265,5.576,2.265
			c1.679,0,2.693-0.666,2.693-1.759v-0.052c0-1.042-0.64-1.573-3.761-2.377c-3.763-0.96-6.19-2.001-6.19-5.706v-0.056
			c0-3.389,2.721-5.628,6.536-5.628c2.721,0,5.042,0.852,6.937,2.373l-2.135,3.095c-1.653-1.146-3.281-1.841-4.854-1.841
			c-1.575,0-2.401,0.722-2.401,1.629v0.052c0,1.228,0.8,1.629,4.027,2.455c3.789,0.986,5.924,2.347,5.924,5.602v0.052
			C106.223,81.765,103.395,83.848,99.366,83.848z"/>
		<path fill="#FFFFFF" d="M117.872,68.694v14.886h-4.108V68.694h-5.682v-3.787h15.472v3.787H117.872z"/>
		<path fill="#FFFFFF" d="M138.219,83.581l-1.707-4.188h-7.897l-1.707,4.188h-4.188l8.003-18.807h3.789l8.003,18.807H138.219z
			 M132.563,69.71l-2.481,6.056h4.962L132.563,69.71z"/>
		<path fill="#FFFFFF" d="M152.506,83.874c-5.014,0-8.083-2.801-8.083-8.299V64.907h4.108v10.564c0,3.039,1.521,4.613,4.029,4.613
			s4.029-1.518,4.029-4.479V64.907h4.108v10.538C160.697,81.099,157.523,83.874,152.506,83.874z"/>
		<path fill="#FFFFFF" d="M176.213,83.581l-4.002-5.978h-3.227v5.978h-4.108V64.907h8.537c4.402,0,7.043,2.321,7.043,6.16v0.056
			c0,3.013-1.627,4.906-4.002,5.788l4.562,6.67H176.213z M176.292,71.283c0-1.763-1.228-2.667-3.229-2.667h-4.081v5.36h4.161
			c2.001,0,3.149-1.068,3.149-2.641V71.283z"/>
		<path fill="#FFFFFF" d="M198.051,83.581l-1.707-4.188h-7.897l-1.707,4.188h-4.188l8.003-18.807h3.789l8.003,18.807H198.051z
			 M192.395,69.71l-2.481,6.056h4.962L192.395,69.71z"/>
		<path fill="#FFFFFF" d="M218.315,83.581l-9.045-11.87v11.87h-4.055V64.907h3.789l8.749,11.498V64.907h4.056v18.673H218.315z"/>
		<path fill="#FFFFFF" d="M234.735,68.694v14.886h-4.108V68.694h-5.682v-3.787h15.472v3.787H234.735z"/>
	</g>
</g>
</svg>
