<svg id="Design" xmlns="http://www.w3.org/2000/svg" viewBox="0 0 268.41 39.38"><defs><style>.cls-1{fill:#231f20;}</style></defs><title>Upstairs_for_menu</title><path class="cls-1" d="M5009.34,3906.44c-10.27,0-16.55-5.73-16.55-17v-21.84h8.41v21.63c0,6.22,3.11,9.44,8.25,9.44s8.25-3.11,8.25-9.17v-21.9h8.41v21.57C5026.11,3900.76,5019.61,3906.44,5009.34,3906.44Z" transform="translate(-4992.79 -3867.06)"/><path class="cls-1" d="M5049.46,3894.37h-6.39v11.47h-8.41v-38.23h15.62c9.12,0,14.64,5.41,14.64,13.21v0.11C5064.92,3889.78,5058,3894.37,5049.46,3894.37Zm6.94-13.38c0-3.77-2.62-5.79-6.83-5.79h-6.5v11.68h6.66c4.2,0,6.66-2.51,6.66-5.79V3881Z" transform="translate(-4992.79 -3867.06)"/><path class="cls-1" d="M5085.65,3884.65c8.52,1.86,12.45,5,12.45,10.87,0,6.6-5.46,10.87-13.05,10.87a22.37,22.37,0,0,1-15.62-6.12l2.68-3.16c4,3.6,7.81,5.41,13.11,5.41,5.13,0,8.52-2.68,8.52-6.56,0-3.6-1.91-5.63-9.94-7.32-8.8-1.91-12.84-4.75-12.84-11.09,0-6.12,5.3-10.49,12.56-10.49a19.93,19.93,0,0,1,13.43,4.7l-2.51,3.33a16.8,16.8,0,0,0-11-4.15c-5,0-8.14,2.73-8.14,6.23C5075.27,3880.82,5077.24,3882.85,5085.65,3884.65Z" transform="translate(-4992.79 -3867.06)"/><path class="cls-1" d="M5120.58,3905.84h-4.37v-34.25h-12.84v-4h30v4h-12.84v34.25Z" transform="translate(-4992.79 -3867.06)"/><path class="cls-1" d="M5172.18,3905.84h-4.64l-4.48-10.11h-20.81l-4.53,10.11h-4.42l17.42-38.5h4Zm-19.5-33.48-8.74,19.49h17.42Z" transform="translate(-4992.79 -3867.06)"/><path class="cls-1" d="M5184.39,3867.61v38.23h-4.32v-38.23h4.32Z" transform="translate(-4992.79 -3867.06)"/><path class="cls-1" d="M5221.91,3905.84L5210.82,3891h-10.92v14.86h-4.31v-38.23H5212c8.41,0,13.81,4.53,13.81,11.42,0,6.39-4.37,10.1-10.38,11.19l11.74,15.62h-5.3Zm-10.22-34.25h-11.8v15.51h11.74c5.73,0,9.83-2.95,9.83-7.92C5221.47,3874.43,5217.86,3871.59,5211.69,3871.59Z" transform="translate(-4992.79 -3867.06)"/><path class="cls-1" d="M5248.75,3884.65c8.52,1.86,12.45,5,12.45,10.87,0,6.6-5.46,10.87-13.05,10.87a22.37,22.37,0,0,1-15.62-6.12l2.68-3.16c4,3.6,7.81,5.41,13.11,5.41,5.13,0,8.52-2.68,8.52-6.56,0-3.6-1.91-5.63-9.94-7.32-8.8-1.91-12.84-4.75-12.84-11.09,0-6.12,5.3-10.49,12.56-10.49a19.93,19.93,0,0,1,13.43,4.7l-2.51,3.33a16.8,16.8,0,0,0-11-4.15c-5,0-8.14,2.73-8.14,6.23C5238.37,3880.82,5240.34,3882.85,5248.75,3884.65Z" transform="translate(-4992.79 -3867.06)"/></svg>